<svg xmlns="http://www.w3.org/2000/svg" viewBox="0 0 1200 64" width="1200" height="64" role="img" aria-label="Section 05: OPEN COMMS">
<defs><filter id="g" x="-40%" y="-40%" width="180%" height="180%"><feGaussianBlur stdDeviation="4" result="b"/><feMerge><feMergeNode in="b"/><feMergeNode in="SourceGraphic"/></feMerge></filter></defs>
<path d="M16.0,10.0 L78.0,10.0 L78.0,42.0 L66.0,54.0 L4.0,54.0 L4.0,22.0 Z" fill="#22e5ff"><animate attributeName="fill-opacity" values="1;0.75;1" dur="2.6s" repeatCount="indefinite"/></path>
<text x="41" y="42" text-anchor="middle" font-family="'Courier New', 'SF Mono', Consolas, Menlo, monospace" font-size="26" font-weight="700" fill="#04070d">05</text>
<text x="100" y="42" font-family="'Segoe UI', Inter, 'Helvetica Neue', Arial, sans-serif" font-size="27" font-weight="800" text-anchor="start" textLength="210" lengthAdjust="spacingAndGlyphs" fill="#ff3df0" opacity="0.75"><animateTransform attributeName="transform" type="translate" values="0 0;0 0;-6 0;5 0;0 0;4 -1;0 0;0 0" keyTimes="0;0.86;0.87;0.89;0.90;0.93;0.94;1" dur="8s" repeatCount="indefinite"/>OPEN COMMS</text><text x="100" y="42" font-family="'Segoe UI', Inter, 'Helvetica Neue', Arial, sans-serif" font-size="27" font-weight="800" text-anchor="start" textLength="210" lengthAdjust="spacingAndGlyphs" fill="#22e5ff" opacity="0.75"><animateTransform attributeName="transform" type="translate" values="0 0;0 0;5 0;-4 1;0 0;-5 0;0 0;0 0" keyTimes="0;0.86;0.87;0.89;0.90;0.93;0.94;1" dur="8s" repeatCount="indefinite"/>OPEN COMMS</text><text x="100" y="42" font-family="'Segoe UI', Inter, 'Helvetica Neue', Arial, sans-serif" font-size="27" font-weight="800" text-anchor="start" textLength="210" lengthAdjust="spacingAndGlyphs" fill="#cfe8ff" >OPEN COMMS</text>
<line x1="332" y1="32" x2="1010" y2="32" stroke="#22e5ff" stroke-opacity="0.3"/>
<line x1="332" y1="27" x2="332" y2="37" stroke="#22e5ff" stroke-opacity="0.25"/>
<line x1="352" y1="27" x2="352" y2="37" stroke="#22e5ff" stroke-opacity="0.25"/>
<line x1="372" y1="27" x2="372" y2="37" stroke="#22e5ff" stroke-opacity="0.25"/>
<line x1="392" y1="27" x2="392" y2="37" stroke="#22e5ff" stroke-opacity="0.25"/>
<line x1="412" y1="27" x2="412" y2="37" stroke="#22e5ff" stroke-opacity="0.25"/>
<line x1="432" y1="27" x2="432" y2="37" stroke="#22e5ff" stroke-opacity="0.25"/>
<line x1="452" y1="27" x2="452" y2="37" stroke="#22e5ff" stroke-opacity="0.25"/>
<line x1="472" y1="27" x2="472" y2="37" stroke="#22e5ff" stroke-opacity="0.25"/>
<line x1="492" y1="27" x2="492" y2="37" stroke="#22e5ff" stroke-opacity="0.25"/>
<line x1="512" y1="27" x2="512" y2="37" stroke="#22e5ff" stroke-opacity="0.25"/>
<line x1="532" y1="27" x2="532" y2="37" stroke="#22e5ff" stroke-opacity="0.25"/>
<line x1="552" y1="27" x2="552" y2="37" stroke="#22e5ff" stroke-opacity="0.25"/>
<line x1="572" y1="27" x2="572" y2="37" stroke="#22e5ff" stroke-opacity="0.25"/>
<line x1="592" y1="27" x2="592" y2="37" stroke="#22e5ff" stroke-opacity="0.25"/>
<line x1="612" y1="27" x2="612" y2="37" stroke="#22e5ff" stroke-opacity="0.25"/>
<line x1="632" y1="27" x2="632" y2="37" stroke="#22e5ff" stroke-opacity="0.25"/>
<line x1="652" y1="27" x2="652" y2="37" stroke="#22e5ff" stroke-opacity="0.25"/>
<line x1="672" y1="27" x2="672" y2="37" stroke="#22e5ff" stroke-opacity="0.25"/>
<line x1="692" y1="27" x2="692" y2="37" stroke="#22e5ff" stroke-opacity="0.25"/>
<line x1="712" y1="27" x2="712" y2="37" stroke="#22e5ff" stroke-opacity="0.25"/>
<line x1="732" y1="27" x2="732" y2="37" stroke="#22e5ff" stroke-opacity="0.25"/>
<line x1="752" y1="27" x2="752" y2="37" stroke="#22e5ff" stroke-opacity="0.25"/>
<line x1="772" y1="27" x2="772" y2="37" stroke="#22e5ff" stroke-opacity="0.25"/>
<line x1="792" y1="27" x2="792" y2="37" stroke="#22e5ff" stroke-opacity="0.25"/>
<line x1="812" y1="27" x2="812" y2="37" stroke="#22e5ff" stroke-opacity="0.25"/>
<line x1="832" y1="27" x2="832" y2="37" stroke="#22e5ff" stroke-opacity="0.25"/>
<line x1="852" y1="27" x2="852" y2="37" stroke="#22e5ff" stroke-opacity="0.25"/>
<line x1="872" y1="27" x2="872" y2="37" stroke="#22e5ff" stroke-opacity="0.25"/>
<line x1="892" y1="27" x2="892" y2="37" stroke="#22e5ff" stroke-opacity="0.25"/>
<line x1="912" y1="27" x2="912" y2="37" stroke="#22e5ff" stroke-opacity="0.25"/>
<line x1="932" y1="27" x2="932" y2="37" stroke="#22e5ff" stroke-opacity="0.25"/>
<line x1="952" y1="27" x2="952" y2="37" stroke="#22e5ff" stroke-opacity="0.25"/>
<line x1="972" y1="27" x2="972" y2="37" stroke="#22e5ff" stroke-opacity="0.25"/>
<line x1="992" y1="27" x2="992" y2="37" stroke="#22e5ff" stroke-opacity="0.25"/>
<line x1="332" y1="32" x2="422" y2="32" stroke="#22e5ff" stroke-width="3" filter="url(#g)"><animateTransform attributeName="transform" type="translate" values="0 0;588 0" dur="3.2s" repeatCount="indefinite"/></line>
<circle cx="1028" cy="32" r="4" fill="#3dffa0"><animate attributeName="opacity" values="1;0.2;1" dur="1.3s" repeatCount="indefinite"/></circle>
<text x="1042" y="37" font-family="'Courier New', 'SF Mono', Consolas, Menlo, monospace" font-size="13" fill="#5b7a99" textLength="150" lengthAdjust="spacing">SEC.05 // ONLINE</text>
</svg>